:SAMPLES-PER-SECOND 30
:FULLY-SPECIFIED
:DEGREES
196
root  35.01483587 36.49118378 -14.98964565 7.945076942 -7.902916431 4.50879097
lowerback  -7.477217674 -1.235256433 -1.173587441
upperback  -3.593800068 -1.117540002 -3.838500023
thorax  0.4069409966 -0.4029429853 -3.390320063
lowerneck  1.245190024 -19.78689957 -13.83290005
upperneck  11.58090019 -28.21969986 16.66959953
head  7.737390041 -13.34220028 4.672520161
lclavicle  0 -4.497500157e-015 -2.743230041e-014
lhumerus  -47.03089905 27.27420044 64.2071991
lradius  -0.02101739869 -6.507048965e-006 29.97670174
lwrist  4.824992743e-007 -3.790274832e-007 -28.65600014
lhand  -4.444749912e-031 -37.39680099 -10.59200001
lfingers  90 7.125020027 -90
lthumb  95.03052065 -25.41144884 101.5923974
rclavicle  0 -4.497500157e-015 -2.743230041e-014
rhumerus  -23.47589874 -40.82179642 -5.097051144
rradius  -5.16745672e-007 2.214343908e-008 40.19219971
rwrist  -7.499573258e-005 0.03438235447 -162.6940002
rhand  -1.771011023e-031 4.495490074 -8.010800362
rfingers  -90 -7.125020027 -90
rthumb  -85.2932856 -8.124887646 -59.77693282
rfemur  -12.98174763 17.13765717 11.5438261
rtibia  -1.708256841 -1.901571751 21.79066849
rfoot  0.1782412231 -22.92727089 -34.57928848
rtoes  3.822133895 19.64608168 -101.2388187
lfemur  -8.313167572 -17.61677742 -21.78408241
ltibia  2.146074057 -2.756850243 15.6437397
lfoot  1.190990806 -20.93326759 39.84225082
ltoes  -8.67904985 -18.08859366 -116.1804861
197
root  35.01426817 36.4907903 -14.99030046 7.938688755 -7.884088039 4.488667488
lowerback  -7.464620113 -1.233929992 -1.183480024
upperback  -3.593960285 -1.114820004 -3.849570036
thorax  0.3965170085 -0.4009470046 -3.393520117
lowerneck  1.213269949 -19.7798996 -13.83409977
upperneck  11.63000011 -28.21170235 16.65870094
head  7.756020069 -13.33419991 4.666319847
lclavicle  0 -4.497500157e-015 -2.743230041e-014
lhumerus  -47.0442009 27.30900002 64.17970276
lradius  -0.02011064626 -6.507048965e-006 29.97129822
lwrist  4.824992743e-007 -3.790274832e-007 -28.68969917
lhand  -4.442818134e-031 -37.36420059 -10.59729958
lfingers  90 7.125020027 -90
lthumb  95.01643218 -25.41783031 101.5580081
rclavicle  0 -4.497500157e-015 -2.743230041e-014
rhumerus  -23.61330032 -40.9978981 -5.028428078
rradius  -5.16745672e-007 2.214343908e-008 40.22629929
rwrist  -7.499573258e-005 0.03438235447 -162.4459991
rhand  -1.771169402e-031 4.560190201 -7.976029873
rfingers  -90 -7.125020027 -90
rthumb  -85.2611118 -8.159445688 -59.71140672
rfemur  -12.95321751 17.16411972 11.56710243
rtibia  -1.697042227 -1.878035188 21.75590515
rfoot  0.1979168653 -22.88093758 -34.60239029
rtoes  3.844322007 19.64191679 -101.3048203
lfemur  -8.377709389 -17.65846443 -21.73845863
ltibia  2.083868504 -2.792763948 15.75709724
lfoot  1.167424917 -20.91444016 39.77586746
ltoes  -8.670782695 -18.09245492 -116.1538624
198
root  35.01473374 36.49022861 -14.99116252 7.941249847 -7.879914284 4.481603146
lowerback  -7.471620083 -1.21747005 -1.166170359
upperback  -3.59438014 -1.093250036 -3.861920118
thorax  0.4060119987 -0.3903099895 -3.414690018
lowerneck  1.177800059 -19.79330063 -13.8743
upperneck  11.6953001 -28.23759842 16.66679955
head  7.794700146 -13.34140015 4.662169933
lclavicle  0 -4.497500157e-015 -2.743230041e-014
lhumerus  -47.03509903 27.36599922 64.16419983
lradius  -0.01919358969 -6.507048965e-006 29.9556942
lwrist  4.824992743e-007 -3.790274832e-007 -28.73180008
lhand  -4.44351693e-031 -37.37599945 -10.57310009
lfingers  90 7.125020027 -90
lthumb  95.0165671 -25.39361562 101.5683243
rclavicle  0 -4.497500157e-015 -2.743230041e-014
rhumerus  -23.76210022 -41.00989914 -4.936850548
rradius  -5.16745672e-007 2.214343908e-008 40.26789856
rwrist  -7.499573258e-005 0.03438235447 -162.3970032
rhand  -1.771330443e-031 4.625040054 -8.04957962
rfingers  -90 -7.125020027 -90
rthumb  -85.28406759 -8.100562734 -59.65358261
rfemur  -12.95415878 17.17251396 11.57237339
rtibia  -1.694832206 -1.872069597 21.74642563
rfoot  0.2043469697 -22.8629837 -34.61102676
rtoes  3.857105289 19.63950584 -101.3428521
lfemur  -8.399271965 -17.6843338 -21.71892738
ltibia  2.068416595 -2.79684329 15.78823376
lfoot  1.185654759 -20.92136765 39.81956863
ltoes  -8.676498845 -18.08978562 -116.1722702
199
root  35.01627464 36.49009344 -14.99210868 7.943534374 -7.874652386 4.479513168
lowerback  -7.477309704 -1.209599853 -1.161839724
upperback  -3.595108032 -1.083690047 -3.854660034
thorax  0.414124012 -0.3858650029 -3.408979893
lowerneck  1.233129978 -19.75469971 -13.88249969
upperneck  11.58959961 -28.17970085 16.7038002
head  7.748710155 -13.32190037 4.693019867
lclavicle  0 -4.497500157e-015 -2.743230041e-014
lhumerus  -47.02629852 27.3260994 64.19660187
lradius  -0.01822078228 -6.507048965e-006 29.95735168
lwrist  4.824992743e-007 -3.790274832e-007 -28.69370079
lhand  -4.444850587e-031 -37.39849854 -10.60070038
lfingers  90 7.125020027 -90
lthumb  95.03316592 -25.41983928 101.5948816
rclavicle  0 -4.497500157e-015 -2.743230041e-014
rhumerus  -23.82139969 -40.88490295 -4.883967876
rradius  -5.16745672e-007 2.214343908e-008 40.3266983
rwrist  -7.499573258e-005 0.03438235447 -162.4049988
rhand  -1.771342579e-031 4.629889965 -8.004570007
rfingers  -90 -7.125020027 -90
rthumb  -85.26003563 -8.139709526 -59.64565109
rfemur  -12.95528316 17.16098595 11.56348991
rtibia  -1.691016316 -1.879186988 21.73788834
rfoot  0.1907414794 -22.87799072 -34.6402359
rtoes  3.845461386 19.64170224 -101.30821
lfemur  -8.38599205 -17.68450546 -21.72062492
ltibia  2.07652998 -2.793004513 15.76576996
lfoot  1.178995013 -20.911726 39.81561661
ltoes  -8.664322502 -18.09546901 -116.1330618
200
root  35.01824807 36.48959182 -14.99305335 7.936038971 -7.868447304 4.469535351
lowerback  -7.487769604 -1.206169844 -1.165749907
upperback  -3.596191883 -1.077600002 -3.853420019
thorax  0.4188170135 -0.3854758739 -3.412849903
lowerneck  1.265799999 -19.7154007 -13.85820007
upperneck  11.50669956 -28.1201992 16.73259926
head  7.707719803 -13.29769993 4.715740204
lclavicle  0 -4.497500157e-015 -2.743230041e-014
lhumerus  -47.01689911 27.28779984 64.22029877
lradius  -0.01719951071 -6.507048965e-006 29.96523857
lwrist  4.824992743e-007 -3.790274832e-007 -28.64119911
lhand  -4.445016664e-031 -37.40129852 -10.5340004
lfingers  90 7.125020027 -90
lthumb  95.01969713 -25.35445091 101.591627
rclavicle  0 -4.497500157e-015 -2.743230041e-014
rhumerus  -23.94519997 -40.93560028 -4.833668709
rradius  -5.16745672e-007 2.214343908e-008 40.39820099
rwrist  -7.499573258e-005 0.03438235447 -162.2910004
rhand  -1.771415188e-031 4.658800125 -7.983970165
rfingers  -90 -7.125020027 -90
rthumb  -85.24302368 -8.159509052 -59.61601078
rfemur  -12.95629406 17.15623856 11.57482243
rtibia  -1.686833501 -1.871265173 21.73559189
rfoot  0.1975671053 -22.87413025 -34.62646103
rtoes  3.850482288 19.64075599 -101.3231474
lfemur  -8.425867081 -17.66083908 -21.68799591
ltibia  2.033118486 -2.768962622 15.82414246
lfoot  1.198153377 -21.00509644 39.84649277
ltoes  -8.651689878 -18.10135479 -116.0923966
